<!-- Generated by IcoMoon.io -->
<svg version="1.1" xmlns="http://www.w3.org/2000/svg" width="2192" height="1024" viewBox="0 0 2192 1024">
<title></title>
<g id="icomoon-ignore">
</g>
<path fill="#000" d="M985.621 1.564c-0.596 2.187-2.485 41.244-2.485 51.779 0 5.963-0.497 17.392-0.994 25.343-2.584 36.474 4.969 53.269 28.821 64.301 12.622 5.863 22.162 7.553 43.232 7.652 30.412 0.198 47.008-4.969 59.332-18.088 7.951-8.448 11.23-17.789 12.721-35.977 0.994-12.522 3.379-69.669 3.479-83.483v-7.454l-8.944-0.596c-13.616-0.994-39.058-0.994-39.654 0-0.298 0.398-0.994 12.622-1.591 27.032-1.888 50.785-3.18 70.563-4.472 73.743-2.982 7.056-10.038 10.634-21.070 10.634-9.441 0-16.895-3.18-20.374-8.746-2.187-3.578-2.286-4.274-1.987-25.542 0.099-12.025 0.696-28.623 1.193-36.772 0.497-8.249 0.994-21.169 1.193-28.821l0.298-13.913-18.386-0.696c-10.137-0.398-20.97-0.795-24.25-1.093-3.578-0.198-5.863 0.099-6.063 0.696z"></path>
<path fill="#000" d="M862.386 13.092c-2.187 0.398-7.752 1.292-12.423 1.888-4.671 0.696-11.728 1.69-15.703 2.286l-7.355 1.193 0.696 3.081c0.398 1.591 1.093 5.168 1.49 7.951 1.391 8.845 3.479 20.87 7.056 39.754 0.795 4.571 1.49 8.149 3.777 21.864 0.497 2.683 1.591 8.944 2.485 13.913 1.591 8.249 2.286 12.522 4.571 25.839 0.497 2.683 1.391 7.553 1.888 10.634 0.596 3.18 1.49 8.348 2.087 11.429 0.497 3.081 1.292 5.963 1.789 6.46s3.081 0.398 5.764-0.099c2.683-0.497 8.647-1.391 13.317-2.087 4.671-0.596 11.131-1.49 14.411-1.987s9.541-1.391 13.913-1.987c4.373-0.596 10.833-1.591 14.411-2.087 17.392-2.485 28.126-3.975 35.679-4.969 14.212-1.789 14.013-1.69 11.628-13.517-0.696-3.677-1.888-10.236-2.683-14.51-1.292-7.553-1.292-7.652-4.274-7.652-1.591 0-15.504 1.789-30.809 4.075-26.337 3.777-27.927 3.876-29.12 2.286-0.696-0.994-1.292-3.081-1.292-4.571 0-1.591-0.398-4.771-0.894-7.056-0.894-3.777-2.087-10.535-5.168-28.026-0.497-3.279-1.391-8.249-1.888-10.933-0.497-2.782-1.391-7.652-1.888-10.933-0.596-3.279-1.69-9.541-2.485-13.913s-1.987-11.131-2.683-14.908c-0.596-3.876-1.591-8.647-2.087-10.733-0.894-3.578-0.894-3.677-5.566-3.578-2.584 0.099-6.46 0.497-8.647 0.894z"></path>
<path fill="#000" d="M1168.488 16.472c-0.198 0.596-1.193 3.777-2.286 7.056-3.578 11.032-10.833 33.691-14.609 45.716-2.087 6.56-4.075 12.821-4.472 13.913s-2.385 7.355-4.472 13.913c-1.987 6.56-4.075 12.821-4.472 13.913s-2.385 7.355-4.472 13.913c-1.987 6.56-4.075 12.821-4.472 13.913-1.888 4.87-4.174 13.616-3.578 14.113 0.497 0.497 22.162 6.36 34.685 9.342 8.547 2.087 11.728 2.883 23.057 5.863 6.56 1.69 13.517 3.578 15.405 3.975 23.654 5.963 29.318 6.957 42.138 7.652 13.913 0.696 19.578-0.994 29.616-9.043 3.975-3.081 11.728-14.113 11.728-16.598 0-0.795 0.497-1.987 1.093-2.584 0.696-0.696 1.193-4.87 1.193-9.938 0.099-7.056-0.298-9.541-2.087-12.821-2.883-5.665-6.56-9.839-11.827-13.416-2.385-1.69-4.274-3.479-4.075-4.075s3.677-2.087 7.752-3.379c14.013-4.373 20.97-10.933 24.548-23.156 2.087-7.355 1.391-17.293-1.789-23.057-6.858-12.721-19.976-19.479-54.561-27.728-1.888-0.497-8.845-2.286-15.405-3.975s-13.715-3.578-15.901-4.075c-7.155-1.789-10.733-2.683-22.859-5.863-16.994-4.472-19.479-4.969-19.877-3.578zM1220.665 58.61c4.075 1.093 10.137 2.782 13.416 3.578 12.92 3.479 14.908 5.566 14.51 15.703-0.099 3.876-6.858 10.733-10.634 10.733-3.18 0-34.983-7.553-36.971-8.845-0.894-0.596-0.994-1.49-0.398-3.18 0.596-1.292 1.987-5.764 3.279-9.839 1.193-4.075 2.683-8.249 3.18-9.342 0.994-1.987 1.789-1.987 13.616 1.193zM1212.415 113.57c23.951 6.46 27.43 9.64 23.852 21.268-2.485 8.249-6.659 11.429-14.808 11.429-3.081 0-6.659-0.398-7.951-0.894s-8.547-2.385-16.2-4.174c-7.652-1.789-14.311-3.578-14.808-3.975-0.894-0.795 0.198-5.764 2.385-11.33 0.398-1.093 1.591-4.671 2.485-7.951 2.782-9.342 3.081-9.74 7.255-8.944 2.087 0.298 10.038 2.385 17.789 4.571z"></path>
<path fill="#000" d="M772.94 30.386c-5.466 1.789-17.889 5.863-27.728 9.043-9.74 3.18-18.486 6.56-19.479 7.355-0.994 0.894-3.677 6.46-5.963 12.522-2.385 5.963-4.87 12.522-5.665 14.411s-1.888 4.373-2.286 5.466c-0.398 1.093-1.69 4.075-2.883 6.659s-2.087 5.068-2.087 5.367c0 0.298-0.696 2.187-1.591 4.174-0.894 2.087-1.888 4.571-2.385 5.665-0.398 1.093-1.193 3.081-1.789 4.472-0.497 1.391-1.292 3.279-1.591 4.174-1.391 4.571-2.485 2.584-12.522-22.56-0.398-1.093-1.69-3.975-2.782-6.46s-2.782-6.858-3.777-9.64c-3.578-10.137-1.789-10.038-27.131-1.789-12.225 4.075-22.362 7.553-22.56 7.752-0.298 0.298 2.485 7.951 5.566 15.306 0.596 1.292 1.391 3.279 1.888 4.472 0.497 1.292 1.789 4.373 2.982 6.957s2.087 5.068 2.087 5.367c0 0.298 0.696 2.187 1.591 4.174 0.894 2.087 1.888 4.571 2.385 5.665 0.398 1.093 1.193 3.081 1.789 4.472 0.497 1.391 1.987 4.969 3.18 7.951s2.782 6.758 3.479 8.448c0.696 1.591 7.454 18.187 14.908 36.772 7.553 18.585 14.013 34.089 14.311 34.486 0.497 0.596 19.479-5.068 27.43-8.149 1.093-0.497 5.466-1.888 9.839-3.081 8.249-2.485 9.441-3.677 7.752-7.155-0.497-1.193-2.286-5.367-3.777-9.144-1.49-3.876-3.081-7.454-3.379-7.951-0.398-0.596-1.49-3.479-2.485-6.56l-1.789-5.566 6.659-13.517c3.677-7.454 7.056-13.814 7.652-14.113 0.696-0.497 11.728 7.056 13.814 9.441 0.298 0.298 3.379 2.782 6.957 5.566s12.92 10.038 20.771 16.2c13.019 10.236 14.411 11.131 16.895 10.236 1.391-0.596 12.622-4.274 24.945-8.249s22.659-7.454 23.057-7.752c0.398-0.298-4.472-4.373-10.833-9.043-11.926-8.746-31.902-23.455-40.549-29.815-2.683-1.987-9.243-6.758-14.411-10.535-5.168-3.876-12.025-8.746-15.106-10.933-3.18-2.087-5.665-4.373-5.764-5.068 0-0.696 2.087-5.566 4.571-10.933 6.659-14.013 25.144-52.177 26.237-54.165 1.193-2.087 1.292-3.777 0.298-3.777-0.497 0.099-5.267 1.591-10.733 3.379z"></path>
<path fill="#000" d="M1378.188 82.562c-2.187 0.994-5.764 3.677-7.852 5.963l-3.975 4.075 1.292 10.634c0.596 5.963 1.789 16.497 2.584 23.554 1.292 11.33 1.69 12.92 3.677 14.411 21.268 14.808 33.592 37.269 33.592 61.121 0 6.261 0 6.36 3.081 6.957 1.69 0.298 4.671 0.596 6.56 0.596h3.379l-0.099 20.374c-0.099 11.131 0.099 20.672 0.398 21.169s3.777 1.69 7.752 2.683c7.951 1.888 26.138 7.752 31.604 10.137 26.237 11.728 41.244 21.169 70.065 44.127 12.92 10.236 17.194 13.317 27.828 19.679 6.46 3.975 38.263 19.976 39.654 19.976 0.298 0 3.479 1.292 7.056 2.982 3.578 1.591 6.957 2.982 7.454 2.982 0.596 0 1.789 0.398 2.782 0.894 0.894 0.497 2.883 1.391 4.274 2.087 3.876 1.789 10.535 8.647 14.51 14.808 3.777 5.863 3.578 5.665 10.634 11.827 4.174 3.578 5.466 4.174 9.342 4.174 2.485 0 5.863 0.398 7.553 0.894s5.068 1.49 7.553 2.087c6.659 1.789 9.74 2.883 17.194 5.863 1.193 0.497 4.174 1.789 6.659 2.782 9.541 3.777 40.947 20.274 55.655 29.12 27.927 16.697 62.215 40.35 68.078 46.81 16.598 18.486 41.443 52.276 52.375 71.457 8.746 15.205 14.013 25.74 21.169 42.239 8.448 19.479 15.802 47.804 18.286 70.065 0.994 8.845 3.18 126.814 3.081 169.946v19.38l27.828 55.655-0.994 9.441c-2.683 25.839-3.081 32.101-2.286 32.697 1.49 1.292 15.405 2.982 34.089 4.174 10.137 0.596 18.486 1.193 18.486 1.193 1.987 2.584 14.113 29.12 13.517 29.716-0.398 0.398-11.429 3.479-24.548 6.758-48.599 12.225-50.189 12.92-50.189 22.063 0 5.466 2.584 10.236 6.36 11.728 1.193 0.398 32.499 0.894 69.469 1.093l67.184 0.398 7.056-5.963c10.733-8.845 14.609-17.094 11.33-23.554-0.894-1.789-6.46-10.236-12.324-18.684-14.311-20.771-17.989-26.834-17.392-27.828 0.298-0.497 2.683-1.193 5.267-1.49 6.758-0.894 18.088-4.373 21.567-6.758 1.69-1.093 3.081-2.087 3.279-2.286 0.198-0.099-0.795-2.584-2.087-5.466-1.391-2.982-3.479-7.652-4.671-10.336-1.193-2.782-3.975-8.647-6.063-13.119-2.187-4.571-3.876-8.348-3.876-8.647 0-0.198-2.485-5.665-5.466-12.025-3.081-6.46-6.46-13.814-7.652-16.299-2.385-5.466-5.466-12.225-9.64-21.268-1.69-3.677-4.472-9.64-6.162-13.416-1.69-3.677-4.174-9.144-5.566-12.124s-4.174-9.043-6.261-13.416c-3.279-7.155-3.777-9.144-4.373-19.38-0.497-6.261-1.093-15.901-1.591-21.367-0.795-11.528-1.69-9.441 12.522-28.026 21.169-27.529 28.623-43.729 32.598-71.060 0.894-5.863 2.087-11.926 2.683-13.416 2.385-5.764 2.782-6.957 5.764-15.007 1.69-4.571 3.081-9.541 3.081-11.131 0-1.49-1.193-6.758-2.584-11.528-3.279-10.933-3.876-14.311-2.584-14.311 1.391 0 18.783 10.038 21.070 12.124 1.093 0.994 2.286 1.789 2.782 1.789 0.596 0 2.782-2.782 4.87-6.261 4.274-6.758 4.671-7.355 13.616-17.889 9.541-11.33 23.554-25.045 41.344-40.449 18.883-16.497 27.131-24.747 29.815-29.716 1.49-2.883 0.696-10.038-1.987-18.386-3.975-11.827-6.957-16.598-17.293-26.933l-9.938-9.839-0.795-17.989c-0.398-9.839-1.193-19.877-1.69-22.362-0.596-2.485-1.292-5.863-1.69-7.454-0.398-1.888-4.075-6.46-10.436-12.92-7.454-7.553-10.336-11.33-12.324-15.901-3.975-9.342-4.174-9.64-6.858-15.703-1.391-3.18-2.584-5.963-2.584-6.162 0-0.298-0.894-2.683-2.087-5.267s-2.485-5.566-2.883-6.659c-0.398-1.093-1.789-4.174-2.883-6.758-1.193-2.683-3.479-8.050-4.969-11.926-1.591-3.975-3.975-9.64-5.367-12.622s-3.876-8.944-5.566-13.119c-1.69-4.174-3.975-9.74-5.168-12.423-1.093-2.584-2.485-5.665-2.883-6.758-3.18-7.852-5.267-11.528-7.652-13.218-5.168-3.578-18.684-9.938-33.592-15.603-14.709-5.665-26.635-11.429-28.026-13.715-0.894-1.391-1.888-13.517-2.883-34.188l-0.696-15.106 2.584-2.982c3.479-4.174 6.162-11.926 7.652-22.461 0.696-4.969 1.591-9.64 1.987-10.436 0.497-0.894 1.391-5.267 1.987-9.839 1.987-14.908-1.49-28.821-10.436-40.549-6.36-8.448-8.050-9.64-18.783-13.317-12.324-4.174-24.747-6.659-39.853-7.951-16.994-1.49-28.524-0.596-32.697 2.286-15.504 11.032-23.455 23.057-23.455 35.579 0 3.279-0.795 6.162-2.485 9.043-2.087 3.777-2.485 5.566-2.485 13.715 0 5.068 0.696 11.827 1.49 14.908 0.994 4.075 1.391 10.236 1.193 22.063-0.198 18.783 0.696 22.063 6.46 23.256 4.274 0.994 6.46 2.286 11.032 6.46 4.87 4.472 6.659 8.746 6.659 16.001 0 5.466-0.198 5.963-2.584 6.858-1.391 0.596-4.174 0.994-6.162 0.994-2.087 0-6.46 1.391-10.137 3.279-11.728 5.764-16.299 15.205-16.2 33.293l0.099 10.236-9.938 9.64c-5.466 5.267-10.436 10.933-11.131 12.622-2.683 6.46-2.782 26.734-0.099 34.983 1.093 3.279-0.596 2.982-10.933-2.087-4.87-2.385-11.827-5.764-15.405-7.355-3.578-1.69-10.833-5.068-16.2-7.553-5.466-2.485-9.938-4.571-10.137-4.571-0.099 0-5.566-2.485-12.025-5.566-6.56-3.081-15.205-7.155-19.281-9.043s-9.243-4.373-11.429-5.466c-3.379-1.69-6.36-1.987-19.877-2.187l-15.901-0.198-17.392-8.845c-43.033-21.765-82.588-48.5-104.85-70.961-7.951-8.050-9.043-8.746-17.392-11.032-9.938-2.782-17.789-5.566-25.542-9.043-2.385-0.994-4.571-1.888-4.87-1.888-0.398 0-5.367-2.286-11.23-5.168-17.989-8.845-33.493-18.486-62.115-38.958l-11.728-8.448-3.876 1.591c-2.187 0.795-8.050 3.677-13.119 6.36-4.969 2.683-9.839 4.771-10.535 4.671-0.795-0.198-3.975-5.068-6.957-10.933-9.938-19.082-18.585-29.517-26.933-32.797-16.2-6.162-27.529-17.989-29.418-30.809-0.795-4.969-2.683-7.553-7.056-9.342-4.373-1.888-7.951-1.69-12.721 0.497z"></path>
<path fill="#000" d="M505.101 138.913c-6.858 4.174-13.715 8.348-15.405 9.342-1.591 0.994-13.517 8.149-26.337 15.901s-24.945 15.007-26.834 16.1c-1.888 1.093-4.671 2.883-6.162 3.876-1.391 1.093-2.883 1.888-3.279 1.888-0.497 0-11.728 7.255-13.416 8.647-0.198 0.198 0 0.696 0.596 1.093 0.497 0.398 10.336 13.218 21.765 28.524s21.070 28.026 21.367 28.324c0.298 0.298 3.975 5.168 8.249 10.933s8.249 11.131 8.944 11.926c0.696 0.894 7.155 9.441 14.51 19.181 7.255 9.64 13.814 17.591 14.51 17.591 0.994 0 30.61-17.492 58.637-34.785 3.876-2.286 8.348-5.068 10.038-5.963 1.69-0.994 6.162-3.677 9.938-5.963s12.124-7.355 18.585-11.23c6.36-3.876 11.628-7.752 11.628-8.547 0-1.292-16.299-23.455-18.088-24.548-0.398-0.298-16.001 8.647-34.585 19.877-18.585 11.33-34.387 20.473-35.082 20.374-1.591 0-17.789-21.964-16.796-22.958 0.596-0.596 42.635-26.138 50.487-30.61 6.063-3.479 7.355-4.472 7.355-5.466-0.099-1.292-16.697-23.654-18.286-24.548-0.596-0.398-6.758 2.683-13.517 6.858-6.858 4.075-13.715 8.249-15.405 9.243-1.591 0.994-8.944 5.367-16.299 9.839-7.255 4.373-13.715 8.050-14.411 8.050-1.49 0-12.522-14.311-12.522-16.1 0.099-0.696 6.858-5.367 15.106-10.236 22.063-13.119 22.362-13.317 34.983-20.87 6.36-3.876 11.528-7.355 11.528-7.752 0-0.696-4.571-7.355-5.963-8.647-0.298-0.298-2.286-2.982-4.472-5.963s-5.068-6.659-6.46-8.149l-2.485-2.683-12.423 7.454z"></path>
<path fill="#000" d="M981.746 211.662c-0.198 0.398-0.497 7.652-0.696 16.1l-0.398 15.405 37.765 0.994v30.809c0 16.895-0.198 39.257-0.398 49.692l-0.398 18.883 22.063 0.894c16.796 0.596 22.362 0.596 22.958-0.298 0.398-0.696 0.994-20.97 1.391-45.12 0.497-24.151 1.093-46.114 1.49-48.698l0.596-4.87 18.585 0.099 18.585 0.198 0.298-15.504c0.198-10.933 0-15.901-0.894-16.497-0.696-0.596-23.455-1.193-57.146-1.49-30.709-0.298-57.642-0.596-59.63-0.795-2.087-0.198-3.975-0.099-4.174 0.198z"></path>
<path fill="#000" d="M385.145 215.637c-4.571 3.279-34.785 25.94-44.028 32.996-1.888 1.391-14.311 10.833-27.529 20.771-13.317 9.938-24.349 18.486-24.647 18.982-0.497 0.894 23.256 26.834 24.647 26.834 0.198 0 7.553-5.367 16.2-11.926l15.802-11.926 6.46 6.758c11.131 11.528 53.469 56.649 67.78 72.153l3.578 3.876 7.255-5.367c4.075-2.982 8.050-5.863 8.845-6.56s5.764-4.373 10.933-8.348c5.168-3.876 9.64-7.454 9.74-7.951 0.497-1.093-2.584-4.571-21.666-24.747-7.951-8.448-20.97-22.362-28.821-30.809-7.951-8.448-16.697-17.889-19.578-20.87s-5.267-5.963-5.267-6.56c0-0.596 6.957-6.261 15.405-12.622l15.405-11.528-7.255-7.652c-3.876-4.274-9.64-10.336-12.622-13.517l-5.466-5.665-5.168 3.677z"></path>
<path fill="#000" d="M911.581 218.917c-2.982 0.398-10.137 1.292-15.901 1.888-12.423 1.292-25.542 2.982-28.324 3.479-1.49 0.298-2.385 1.987-3.777 7.155-0.894 3.677-2.385 9.243-3.279 12.225-2.584 9.144-3.479 12.324-4.373 15.901-0.398 1.888-2.187 8.348-3.876 14.411-1.69 5.963-3.578 12.721-4.174 14.908s-1.49 5.068-1.888 6.46c-0.398 1.391-1.591 5.367-2.485 8.944s-2.087 7.553-2.485 8.944c-1.093 3.479-2.485 8.547-6.46 23.355-1.888 7.056-3.975 14.51-4.472 16.398-0.596 1.888-1.093 4.571-1.292 5.963-0.198 2.883-0.994 2.782 14.709 1.093 5.466-0.596 14.609-1.49 20.374-2.087s11.131-1.292 12.124-1.591c1.193-0.298 2.087-2.982 3.279-9.839 1.987-10.833-0.198-9.441 18.386-11.429 5.764-0.596 13.814-1.49 17.889-1.987s9.839-1.093 12.721-1.391l5.168-0.497 4.274 8.647 4.174 8.647 6.46-0.298c3.578-0.099 9.839-0.596 13.913-1.193 4.075-0.497 12.025-1.391 17.69-2.087 7.155-0.795 10.137-1.49 10.137-2.485 0-0.696-0.398-1.49-0.894-1.888-0.596-0.298-1.591-1.789-2.385-3.279-2.584-5.068-6.957-12.622-8.746-15.306-1.093-1.391-1.888-2.883-1.888-3.279s-0.795-1.888-1.888-3.279c-0.994-1.49-2.982-4.771-4.472-7.454-1.391-2.584-3.777-6.758-5.168-9.441-1.49-2.584-3.479-5.863-4.472-7.355-1.093-1.391-1.888-2.883-1.888-3.279s-0.795-1.888-1.888-3.279c-0.994-1.49-2.883-4.671-4.274-7.155-4.771-8.547-6.659-11.827-9.144-15.802-1.49-2.187-2.584-4.274-2.584-4.671 0-0.298-0.795-1.789-1.888-3.18-0.994-1.49-2.883-4.671-4.274-7.155-5.068-9.043-15.901-27.331-16.497-27.927-0.398-0.298-3.18-0.198-6.162 0.198zM903.729 269.205c3.876 8.149 9.043 18.883 11.528 24.051 5.068 10.336 4.969 11.032-2.187 11.032-2.187 0-6.659 0.398-9.938 0.894s-8.547 1.193-11.728 1.49l-5.863 0.596 0.696-5.168c0.696-5.665 4.87-28.424 6.46-35.381 0.596-2.286 0.994-5.267 0.994-6.56 0-3.081 0.994-5.566 2.087-5.566 0.497 0 4.075 6.56 7.951 14.609z"></path>
<path fill="#000" d="M1179.917 225.277c-20.573 4.671-36.474 15.205-45.916 30.511-8.647 13.715-12.721 27.331-12.721 41.94 0 39.455 35.082 68.177 83.184 68.177 14.908 0 23.753-1.987 37.070-8.249 6.957-3.279 9.938-5.566 16.994-12.522 4.671-4.671 9.144-9.938 10.038-11.528 0.795-1.69 2.584-4.969 3.975-7.454 1.292-2.485 3.479-7.852 4.87-11.926 2.087-6.56 2.385-9.243 2.385-21.864-0.099-12.622-0.398-15.205-2.385-20.87-3.777-10.236-9.043-18.386-16.398-25.144-3.578-3.279-17.293-12.622-18.585-12.622-0.497 0-2.782-0.795-5.168-1.888-7.255-3.18-12.124-4.571-24.349-7.056-6.957-1.292-26.138-1.093-32.996 0.497zM1218.18 260.062c6.063 2.982 10.833 7.852 13.814 14.311 1.69 3.677 2.087 6.46 2.087 14.51 0 14.609-4.075 25.94-12.522 34.486-7.553 7.652-11.628 9.243-23.256 9.144-8.746 0-10.535-0.298-15.007-2.584-5.665-2.982-10.236-7.652-13.517-14.013-1.888-3.578-2.187-5.665-2.087-15.106 0.099-9.144 0.497-12.025 2.584-17.591 5.367-14.013 13.913-22.859 25.045-25.74 5.665-1.49 17.194-0.198 22.859 2.584z"></path>
<path fill="#000" d="M707.843 263.938c-5.764 1.888-14.311 4.571-19.082 6.063-5.168 1.49-8.746 3.18-8.746 3.876 0 1.093 1.193 4.472 4.969 14.013 0.398 1.093 1.987 5.068 3.479 8.944 1.49 3.777 3.081 7.852 3.479 8.944 0.497 1.093 4.472 11.628 8.944 23.355s8.547 22.362 9.043 23.554c1.391 3.479 5.764 14.609 8.845 22.659 0.398 1.093 1.193 3.081 1.789 4.472s2.286 5.963 3.876 10.137c2.782 7.852 3.379 8.448 7.454 6.858 1.292-0.497 5.665-1.888 9.74-3.081 4.075-1.292 9.938-3.081 12.92-3.975s8.845-2.683 12.92-3.975c4.075-1.292 9.938-3.081 12.92-3.975s8.845-2.683 12.92-3.975c4.075-1.292 9.938-3.081 12.92-3.975 2.982-0.994 7.454-2.286 9.938-2.982 3.578-0.994 6.957-2.187 9.74-3.578 0.198-0.099-1.987-5.764-4.771-12.821-0.497-1.093-2.087-5.267-3.677-9.144-2.883-7.553-3.777-8.149-8.448-6.36-1.292 0.497-5.665 1.888-9.74 3.081-4.075 1.292-9.938 3.081-12.92 3.975s-8.845 2.683-12.92 3.975c-4.075 1.193-8.448 2.584-9.74 3.081-3.479 1.292-5.168 1.093-5.764-0.894-1.093-3.18-12.225-32.399-17.293-45.419-0.497-1.093-1.789-4.671-2.982-7.951-1.292-3.279-2.883-7.355-3.578-8.944-3.677-8.845-10.336-26.834-10.336-28.026 0-2.087-4.571-1.49-15.901 2.087z"></path>
<path fill="#000" d="M1337.043 266.72c-0.795 1.987-2.385 8.845-6.162 26.138-0.497 2.187-1.391 6.162-1.888 8.944-1.093 5.367-1.888 9.043-4.472 20.374-2.385 10.236-3.081 13.616-4.373 19.38-2.286 10.436-6.261 28.92-7.056 32.3-0.398 1.888-1.292 5.963-1.987 8.944s-1.591 7.056-1.987 8.944c-2.385 10.634-3.279 8.944 7.652 14.51 5.367 2.782 14.609 7.652 20.473 10.733s11.23 5.566 11.827 5.566c0.894 0 13.814-9.74 15.703-11.926 0.298-0.298 3.18-2.485 6.46-4.969 6.758-5.068 9.144-6.957 10.833-8.547 0.596-0.497 4.274-3.379 8.050-6.36 14.013-10.833 24.846-19.38 26.834-21.169 1.093-0.994 5.168-4.174 8.944-7.155 3.876-2.883 13.019-10.038 20.473-16.001s14.808-11.728 16.398-12.92c1.49-1.093 2.485-2.485 2.087-3.081-0.298-0.497-7.454-4.472-15.802-8.746s-16.598-8.547-18.486-9.541c-1.789-1.093-3.677-1.888-4.174-1.888-0.596 0-3.578 2.087-6.758 4.671-7.056 5.665-16.398 13.517-17.094 14.212-0.298 0.298-6.758 5.665-14.411 11.926s-18.486 15.901-24.051 21.467c-5.665 5.566-10.236 9.74-10.236 9.243s0.894-2.782 1.888-5.168c2.286-4.969 8.348-23.156 9.839-29.517 1.49-6.261 1.69-7.155 7.255-28.722 2.683-10.634 4.87-20.274 4.87-21.467 0-1.69-3.479-3.876-19.082-12.025-10.436-5.367-19.38-9.938-19.877-10.137-0.398-0.198-1.193 0.696-1.69 1.987z"></path>
<path fill="#000" d="M625.355 294.846c-10.236 6.261-15.405 9.541-25.343 15.901-5.466 3.479-11.33 7.056-13.019 7.951-3.379 1.69-2.883-0.696-6.858 39.754-2.187 21.964-2.782 25.839-4.174 25.839-1.093 0-3.479-2.683-9.243-10.436-1.391-1.888-3.578-4.771-4.969-6.36-1.391-1.69-5.267-6.56-8.448-10.833-3.279-4.274-6.56-8.547-7.155-9.342-1.49-1.987-2.683-1.49-15.205 6.758-4.671 3.081-8.944 5.764-9.541 5.963-2.782 0.994-13.317 8.448-13.317 9.342 0 0.497 1.093 2.286 2.485 3.975 1.292 1.591 19.877 25.343 41.244 52.673 21.268 27.331 39.455 49.792 40.25 49.99 2.087 0.497 36.176-20.771 36.275-22.461 0-0.696-1.292-2.982-2.982-4.969-11.628-14.212-15.007-18.883-15.504-20.573-0.298-1.193 0-4.969 0.596-8.448 0.596-3.578 1.49-9.144 1.987-12.324 1.093-7.553 2.385-8.944 6.46-7.056 1.69 0.795 5.466 2.485 8.448 3.777 2.982 1.391 7.752 3.479 10.436 4.671 30.212 13.517 35.977 15.901 37.269 15.901 1.093 0 10.933-5.764 22.859-13.416 3.578-2.286 9.342-5.963 12.92-8.249 6.162-3.876 6.261-4.075 3.975-4.969-6.162-2.385-28.722-11.429-31.803-12.821-1.888-0.795-4.472-1.888-5.665-2.385-1.292-0.497-3.279-1.292-4.472-1.789-1.292-0.497-4.274-1.69-6.758-2.584s-6.063-2.286-7.951-3.18c-3.578-1.49-6.162-2.584-10.137-4.174-1.292-0.398-3.379-1.292-4.771-1.987-1.391-0.596-6.758-2.782-11.926-4.87-10.634-4.274-11.131-5.068-9.043-14.609 1.193-5.466 6.957-39.554 8.050-48.201 0.497-2.982 1.093-6.162 1.49-7.056 1.193-2.982-0.894-2.782-6.46 0.596z"></path>
<path fill="#000" d="M224.242 355.47c-9.74 10.137-17.889 19.082-18.088 19.877s1.292 3.876 3.18 6.957c1.987 2.982 3.578 5.665 3.578 5.863s3.578 6.261 7.951 13.517c4.373 7.255 7.951 13.317 7.951 13.517s1.987 3.479 4.472 7.355c2.485 3.876 4.472 7.155 4.472 7.255 0 0.198 4.969 8.547 10.933 18.585 6.063 10.038 10.933 18.386 10.933 18.585 0 0.099 1.987 3.379 4.472 7.255s4.472 7.155 4.472 7.355c0 0.696 15.901 26.734 16.895 27.728 0.696 0.795 33.194-31.306 35.082-34.685 0.795-1.49-0.099-2.982-7.454-12.821-2.087-2.782-3.777-5.267-3.777-5.665s7.056-8.050 15.802-16.895c8.647-8.944 16.796-17.492 18.187-19.082l2.485-2.883 8.348 3.279c4.571 1.789 8.746 3.677 9.342 4.174 2.782 2.485 5.566 0.398 21.467-16.1 8.944-9.342 16.398-17.392 16.598-17.789 0.298-0.894-1.69-1.69-12.225-4.969-3.777-1.193-7.852-2.584-8.944-2.982-1.093-0.497-5.367-1.888-9.441-3.18-4.075-1.193-7.852-2.584-8.448-3.081-0.497-0.398-1.888-0.795-3.081-0.795-1.292 0-2.584-0.497-2.883-0.994-0.298-0.596-1.69-0.994-2.982-0.994s-2.683-0.497-2.982-0.994c-0.298-0.596-1.49-0.994-2.584-0.994-0.994 0-2.683-0.398-3.677-0.894-0.894-0.497-4.771-1.888-8.647-3.081-3.777-1.193-7.752-2.584-8.647-3.081-0.994-0.497-2.683-0.894-3.677-0.894-1.093 0-2.286-0.497-2.584-0.994-0.298-0.596-1.591-0.994-2.883-0.994-1.193 0-2.584-0.398-3.18-0.795-0.497-0.497-5.566-2.286-11.33-4.075-5.764-1.888-12.622-4.174-15.405-5.168-2.683-0.894-6.758-2.286-8.944-2.982-2.187-0.596-4.771-1.49-5.665-1.987-0.994-0.497-2.584-0.894-3.578-0.894s-2.187-0.398-2.683-0.795c-0.596-0.497-4.373-1.888-8.448-3.081-4.075-1.292-8.149-2.683-8.944-3.081-0.894-0.398-2.883-0.994-4.571-1.391-2.982-0.696-3.777 0.099-20.87 17.789zM264.195 383.397c4.87 1.987 10.634 4.373 12.821 5.367s8.647 3.677 14.411 5.963c5.764 2.286 11.827 4.771 13.416 5.466 1.69 0.696 3.777 1.49 4.771 1.888 0.894 0.298 1.69 1.193 1.69 1.987 0 0.696-5.068 6.659-11.33 13.119-9.74 10.137-11.528 11.628-12.821 10.535-0.894-0.795-4.274-5.267-7.652-9.938-3.279-4.771-10.436-14.908-15.901-22.56s-9.938-14.212-9.938-14.709c0-1.193 1.193-0.894 10.535 2.883z"></path>
<path fill="#000" d="M1483.734 348.713c-0.198 0.398-2.584 9.243-5.068 19.679-2.584 10.336-5.068 20.473-5.566 22.362s-2.087 8.149-3.479 13.913c-1.391 5.764-2.982 12.025-3.479 13.913s-1.391 5.665-1.987 8.448c-1.888 8.149-2.883 9.74-8.249 14.113-2.883 2.286-13.019 10.436-22.56 18.187-9.541 7.652-17.789 14.609-18.386 15.405-0.795 1.193 2.187 4.671 13.416 15.901 7.951 7.951 14.908 14.411 15.603 14.411s3.777-2.187 6.957-4.771c3.18-2.584 13.715-11.131 23.455-18.982l17.591-14.212 7.255-0.894c3.876-0.398 16.598-1.69 28.026-2.782 46.611-4.472 64.599-6.36 65.096-6.758 0.198-0.198-7.355-8.249-16.895-17.789l-17.392-17.492-5.466 0.596c-2.982 0.298-7.652 0.994-10.436 1.49-2.683 0.596-9.839 1.888-15.901 2.982-13.416 2.485-18.386 3.578-20.473 4.472-2.584 1.093-2.982-0.795-1.292-4.969 3.18-7.355 13.616-37.666 14.013-40.648 0.398-2.782-0.994-4.373-16.895-20.175-9.541-9.541-17.591-16.895-17.889-16.398z"></path>
<path fill="#000" d="M767.076 391.845c-0.198 0.795-0.894 4.075-1.591 7.355s-2.286 9.938-3.578 14.908c-2.683 10.137-2.982 11.23-7.852 28.324-1.888 6.858-3.975 14.212-4.571 16.398s-1.49 5.068-1.888 6.46c-0.696 2.087-3.876 14.113-9.144 34.288-0.497 2.187-1.391 4.969-1.888 6.261-2.187 5.665 0.596 17.194 6.56 26.535 1.888 2.982 3.479 6.162 3.479 7.155 0 1.391-5.963 18.088-9.938 27.628-0.398 1.093-1.987 5.068-3.479 8.944-1.49 3.777-3.081 7.852-3.479 8.944-0.497 1.093-1.69 4.472-2.883 7.454-1.093 2.982-2.584 6.758-3.18 8.448-0.696 1.591-1.888 4.969-2.782 7.255-2.385 6.36-3.379 5.863-6.957-3.081-0.596-1.49-1.49-3.677-1.987-4.969-0.497-1.193-2.087-5.367-3.578-9.144-1.49-3.876-3.081-7.852-3.479-8.944-0.497-1.093-2.286-5.764-3.975-10.436-1.789-4.671-3.777-9.938-4.571-11.728-2.087-4.87-3.975-9.144-6.36-14.908-1.193-2.782-2.584-5.168-2.982-5.168-0.696 0-1.789 2.485-3.876 8.647-1.591 4.771-6.162 17.591-7.155 19.877-0.497 1.292-1.292 3.279-1.789 4.472-0.497 1.292-1.591 3.876-2.485 5.963-0.894 1.987-1.591 3.876-1.591 4.174s-0.894 2.782-2.087 5.367c-1.193 2.584-2.485 5.566-2.883 6.659s-2.385 5.963-4.274 10.933c-1.987 4.87-5.168 13.317-7.155 18.684l-3.578 9.839 2.883 5.068c1.591 2.883 4.771 8.547 7.056 12.721l4.075 7.652v20.175c0 11.131 0.298 24.647 0.696 30.113l0.596 9.74 5.863 3.876c3.279 2.087 6.36 3.876 7.056 4.174 0.795 0.198 1.093 6.858 1.193 22.659 0.099 12.225 0.497 47.208 0.994 77.818l0.795 55.456-3.18-1.69c-1.789-0.894-4.87-3.18-6.957-5.068-3.677-3.18-7.056-4.472-7.056-2.485 0 0.497-1.987 4.174-4.373 8.249-3.876 6.56-4.571 7.255-7.155 7.056-1.591-0.099-3.777-0.596-4.87-1.093-1.093-0.596-6.659-2.385-12.423-4.174-11.429-3.479-14.908-4.969-14.908-6.063 0-0.298 1.591-1.888 3.578-3.379 7.355-5.665 12.025-14.808 10.733-21.268-1.391-6.56-10.336-13.814-23.554-18.883-3.18-1.292-4.174-3.081-3.279-6.56 0.596-2.187 1.193-2.485 4.87-2.485 6.063 0 8.249-0.795 9.74-3.677 1.789-3.379 1.591-12.92-0.398-16.796-2.286-4.472-8.944-10.038-13.517-11.429l-4.075-1.193v-8.547c0-5.168-0.497-9.541-1.292-11.032-0.795-1.391-2.584-6.063-4.174-10.436-3.975-11.429-7.355-18.386-8.746-18.386s-3.975 4.671-5.566 9.938c-0.596 1.888-2.187 6.858-3.479 10.933-1.49 4.472-2.683 11.23-3.081 16.895-0.894 12.324-0.894 12.423-5.466 13.814-5.466 1.591-10.535 6.659-11.926 12.025-1.193 4.274-0.696 15.306 0.795 17.492 0.398 0.596 3.379 1.49 6.659 1.987 5.963 0.894 5.963 0.894 6.261 4.472 0.298 3.279 0 3.677-4.87 6.36-16.299 8.845-18.783 19.281-7.553 32.001 2.584 2.982 4.671 5.665 4.671 5.963s-3.479 0.198-7.652-0.198c-23.256-2.087-41.642-12.522-53.071-29.915-2.187-3.479-4.472-6.162-4.87-5.863-0.497 0.298-1.193 3.081-1.49 6.261-0.398 3.081-1.49 9.541-2.584 14.311-4.969 22.958-13.119 38.163-28.623 53.469-12.225 12.124-18.883 14.908-35.082 14.908-7.255 0-10.833-0.398-11.528-1.292-0.596-0.696-1.391-4.671-1.789-8.944s-0.994-7.951-1.391-8.149c-0.497-0.298-11.528-0.198-24.548 0.198l-23.753 0.596-0.198 10.933c-0.099 6.063-0.596 11.429-1.093 11.926-0.596 0.596-1.987 0.596-3.777 0-3.18-1.193-8.647-2.683-15.703-4.274-2.683-0.596-6.56-1.49-8.448-1.987-4.571-1.093-12.821-2.683-21.367-3.975-3.777-0.596-9.144-1.49-11.926-1.987-5.665-0.994-19.281-2.485-37.269-3.975-6.858-0.596-24.747-0.994-39.853-0.994h-27.529l-9.043 10.833c-29.418 35.281-64.401 57.642-135.56 86.663-10.336 4.174-18.187 7.752-17.392 7.951 2.087 0.696 1842.677-0.994 1843.273-1.69 0.497-0.497-2.485-3.479-15.802-15.703-2.485-2.286-12.721-11.628-22.859-20.97-10.137-9.243-23.057-21.070-28.821-26.337-5.764-5.168-11.33-10.236-12.423-11.33-5.267-4.87 12.92-4.771-250.448-1.49-57.941 0.795-109.621 1.391-114.789 1.391h-9.441l-0.696-9.938c-0.298-5.466-1.093-17.094-1.789-25.839-2.683-39.754-2.286-64.599 1.193-74.538 3.578-10.236 6.063-12.622 14.113-13.416l5.068-0.497-7.652-8.149c-9.043-9.74-13.715-17.392-20.771-33.592-4.373-10.236-9.839-37.866-9.839-49.592v-5.566h5.466c6.36 0 6.261 0.398 3.975-12.821-2.584-14.609-3.777-18.286-9.342-29.815-4.274-8.845-13.814-19.082-22.162-23.852-3.677-2.087-5.963-3.975-6.162-5.367-0.298-1.193-0.696-12.124-1.093-24.25l-0.497-22.162-4.373-4.472c-3.677-3.677-6.758-9.938-5.367-10.833 0.099-0.099 1.987-0.894 3.975-1.789 4.472-2.087 7.951-7.355 9.541-14.51 1.391-6.261 1.591-15.306 0.298-16.697-0.497-0.497-4.274-7.355-8.348-15.306s-8.845-17.094-10.634-20.374c-2.883-5.466-3.081-6.46-2.584-12.92 0.298-3.876 0.696-11.429 0.795-16.796 0.198-8.348-0.099-10.038-1.49-10.933-1.093-0.696-1.987-0.696-2.584-0.099-0.497 0.596-1.49 8.845-2.087 18.386l-1.193 17.392-6.659 11.33c-3.578 6.261-7.752 13.416-9.342 15.901-6.063 10.336-8.647 16.796-8.647 22.262 0 7.454 3.578 14.113 9.839 18.386 7.553 5.068 8.547 6.56 7.056 10.137-0.696 1.591-2.883 4.274-4.87 5.963-7.454 6.063-7.056 5.367-7.155 13.715-0.099 9.342-2.286 39.754-2.883 40.25-0.298 0.198-2.883 1.987-5.665 4.075-11.429 8.149-22.859 24.647-25.243 36.574-2.883 13.814-3.677 27.43-1.69 29.418 0.696 0.696 2.584 1.193 4.274 1.193 4.174 0 4.373 0.298 3.479 5.267-0.497 2.286-1.591 8.448-2.485 13.616-0.994 5.168-2.385 11.926-3.18 14.908s-1.789 6.758-2.286 8.448c-3.975 14.709-13.616 32.201-22.56 40.947-4.969 4.771-4.771 5.863 1.391 10.236 1.888 1.391 4.969 3.777 6.858 5.367l3.379 2.782-0.198 39.952-0.298 39.853-25.839 0.596-2.485 3.578c-6.858 10.236-14.709 16.2-21.070 16.2-4.075 0-7.652-1.591-9.243-3.975-1.292-2.087-10.038-25.94-16.001-43.729-0.795-2.485-1.888-5.367-2.385-6.46s-1.591-3.975-2.385-6.46c-0.795-2.485-1.888-5.566-2.385-6.957-1.093-2.683-1.591-4.075-4.174-10.933-0.894-2.485-2.286-4.571-3.081-4.671-0.894-0.198-6.758 10.634-17.69 32.499-8.944 18.088-16.598 32.797-16.994 32.797-1.093 0-2.683-50.884-1.69-53.071 1.193-2.385 9.441-13.317 10.733-14.013 1.789-1.193 0.795-3.479-7.056-15.802-4.373-6.957-7.951-12.821-7.951-13.019 0-0.298-2.385-4.274-5.367-8.845-7.752-12.025-7.852-12.124-6.659-15.802 0.497-1.789 1.391-5.665 1.987-8.647 3.677-19.679 4.771-23.654 6.858-24.151 0.894-0.298 3.876-1.093 6.56-1.789l4.87-1.193-0.596-14.013c-0.696-15.802-2.385-23.753-7.255-34.089-5.168-10.933-14.609-19.082-27.43-23.455-1.292-0.497-1.49-1.193-0.795-3.379 1.591-5.068 6.261-23.753 7.852-31.207 0.398-1.888 1.093-4.075 1.49-4.771 0.596-0.795-0.994-3.081-4.472-6.36-2.982-2.883-7.553-7.454-10.137-10.236l-4.771-5.068 3.479-5.068c6.063-9.043 6.063-19.181 0.099-30.908-1.888-3.777-3.479-7.255-3.479-7.951 0-0.596-0.398-1.888-0.894-2.883-0.497-0.894-2.485-5.963-4.373-11.131-7.951-21.567-11.131-29.815-11.628-29.815-0.596 0-1.391 1.789-8.448 20.374-7.255 19.082-10.236 26.834-12.522 32.001-5.367 12.124-4.472 19.082 3.677 29.815l5.566 7.255-3.876 4.671c-10.733 13.317-12.324 15.603-11.827 16.895 0.298 0.795 1.888 6.858 3.578 13.517s3.479 13.715 3.975 15.703c1.591 5.764 1.292 6.46-3.18 7.852-13.416 4.373-23.753 15.405-28.92 31.008-3.975 11.728-4.671 16.1-4.671 27.529 0 11.728 0.696 13.416 5.764 13.517 2.782 0 3.279 1.591 6.162 18.386 0.696 4.075 1.888 10.535 2.584 14.411 0.795 3.777 1.391 7.752 1.391 8.746 0 1.789-4.274 8.547-19.778 31.405-4.969 7.355-9.043 13.814-8.944 14.411 0 0.596 4.075 4.373 9.043 8.448l8.944 7.255-0.596 15.603c-0.298 8.547-0.994 30.908-1.591 49.792-1.987 66.388-3.081 90.937-4.274 91.632-0.596 0.398-36.474 0.696-79.606 0.795l-78.414 0.099 0.596-155.834c0.596-149.473 0.696-155.834 2.385-157.325 3.975-3.18 6.261-7.752 6.261-12.124 0-4.671-1.69-8.050-7.355-14.212-3.479-3.876-3.578-4.174-3.578-11.926 0-4.373 0.497-13.317 1.093-19.877 1.093-11.827 1.093-12.025-1.391-17.392-1.391-2.982-4.174-9.541-6.162-14.411-3.777-9.043-8.547-20.473-10.933-25.839-0.696-1.69-2.982-7.056-4.969-11.926-4.075-10.038-5.168-12.622-8.647-20.374-1.391-2.982-3.578-8.249-4.87-11.728-1.292-3.379-2.683-6.162-3.18-6.162-0.398 0-1.093 0.994-1.591 2.187-12.821 33.095-13.715 35.182-19.578 48.3-1.292 2.883-2.385 5.466-2.385 5.665 0 0.298-0.894 2.385-1.888 4.771-1.093 2.286-2.683 6.36-3.677 8.944-1.69 4.671-2.982 5.466-4.472 2.584-0.398-0.795-3.379-9.64-6.758-19.778-6.162-18.982-11.728-35.778-13.019-39.257-1.987-5.367-3.975-12.124-3.975-13.317 0-0.795 0.596-2.187 1.391-2.982 6.758-7.652 8.348-19.778 4.274-31.902-2.087-6.46-7.852-28.524-10.634-41.244-0.497-2.187-1.292-5.963-1.888-8.448-0.497-2.485-1.69-7.852-2.584-11.926-2.286-10.634-3.479-15.901-4.472-19.877-0.497-1.888-1.591-6.46-2.485-10.137-1.49-6.56-5.367-18.783-6.063-19.578-0.198-0.198-0.497 0.198-0.795 0.994z"></path>
<path fill="#000" d="M151.99 464.495c-18.783 1.888-29.318 12.522-51.183 51.48-1.391 2.485-3.777 6.36-5.267 8.647-1.591 2.286-2.883 4.373-2.883 4.671 0 0.198-3.578 6.36-7.951 13.616-4.373 7.155-7.951 13.218-7.951 13.416 0 0.298-1.093 2.187-2.485 4.274-2.385 3.578-2.584 7.056-0.298 7.056 0.497 0 5.466 2.187 11.032 4.87 17.194 8.249 30.61 14.609 40.449 19.281 5.168 2.385 14.609 6.858 20.87 9.938 15.007 7.155 31.107 14.808 42.239 20.075 4.969 2.286 12.225 5.863 16.299 7.852s7.454 3.479 7.553 3.379c0.795-0.894 9.441-14.808 9.441-15.106 0-0.198 3.081-5.466 6.858-11.628 3.777-6.261 6.659-11.628 6.46-11.926-0.198-0.398-3.578-2.187-7.553-4.174-9.938-4.771-33.393-15.901-37.269-17.69-1.789-0.696-3.279-1.789-3.279-2.286s1.292-3.081 2.982-5.764c1.591-2.584 2.982-5.168 2.982-5.665 0-1.987 4.771-2.385 34.486-2.883l31.008-0.497 4.075-6.36c2.187-3.479 3.975-6.56 3.975-6.659 0-0.198 3.578-6.261 7.951-13.416 4.373-7.255 7.951-13.715 7.951-14.51 0-1.49 1.093-1.49-45.518 0.596-13.814 0.696-25.443 0.894-25.839 0.497-0.298-0.398-0.497-3.777-0.298-7.454 0.497-12.124-4.174-23.057-13.119-30.014-12.92-10.236-29.716-15.306-45.716-13.616zM164.214 509.714c7.355 3.876 9.441 7.056 9.342 14.013-0.099 4.571-0.795 6.858-3.677 11.926-2.087 3.479-3.677 6.46-3.677 6.659 0 1.69-8.547 13.416-9.74 13.416-0.894 0-5.168-1.789-9.64-3.876-4.373-2.087-11.429-5.466-15.603-7.454-4.274-1.987-7.752-3.876-7.752-4.075 0-0.894 12.324-21.070 15.306-25.045 6.46-8.647 15.603-10.634 25.443-5.566z"></path>
<path fill="#000" d="M175.643 645.771c-17.789 1.292-55.257 3.975-103.36 7.355-15.802 1.093-30.212 2.286-31.902 2.485-2.883 0.497-3.279 0.994-5.863 9.243-1.49 4.771-3.081 9.541-3.479 10.634-2.982 7.852-9.043 28.424-8.547 29.12 0.696 1.093 5.367 4.373 51.779 35.281 19.679 13.119 35.977 24.151 36.275 24.548 0.298 0.298 10.436 7.255 22.56 15.306 12.124 8.149 21.765 15.306 21.567 15.901-0.596 1.292-89.048 54.264-90.737 54.264-0.696 0-10.436-7.056-21.765-15.603-11.33-8.647-25.443-19.38-31.405-23.951-5.963-4.472-11.032-7.951-11.33-7.752-0.198 0.298 0.099 8.249 0.696 17.69s1.292 21.964 1.69 27.828l0.596 10.535 15.504 10.634c8.647 5.764 22.362 15.106 30.709 20.672s15.106 10.733 15.205 11.33c0 0.696-0.994 1.292-2.187 1.292-9.938 0.099-50.586 2.087-53.269 2.584l-3.479 0.696 0.795 10.535c0.398 5.764 0.994 15.405 1.391 21.467l0.596 10.933h7.454c4.075-0.099 19.082-0.696 33.293-1.391 32.996-1.591 58.537-2.782 88.452-3.975 13.119-0.596 25.542-1.292 27.728-1.69l3.777-0.596-0.696-4.174c-0.398-2.187-0.994-11.827-1.391-21.268s-1.093-17.392-1.49-17.789c-0.298-0.398-8.944-0.099-19.181 0.596l-18.486 1.193-8.050-6.261c-4.472-3.379-10.634-8.149-13.814-10.535-5.267-3.975-5.665-4.472-3.975-5.665 1.789-1.193 27.529-15.703 49.493-27.728l10.833-6.063-0.298-9.938c-0.099-5.466-0.596-14.013-1.093-18.883-1.591-15.007-1.292-18.684 2.584-30.61 1.987-6.162 3.975-12.025 4.373-13.119 3.777-9.938 6.261-19.679 5.466-20.97-0.596-0.894-4.87-3.677-9.74-6.162-4.771-2.584-8.647-5.267-8.647-5.863 0-0.696 1.093-4.472 2.286-8.448 3.777-11.528 11.827-36.971 12.225-38.362 0.198-0.894 3.479-1.193 11.728-1.193 12.92 0 12.821 0.099 15.504-8.944 1.292-4.174 8.845-27.927 10.833-34.089l0.894-2.683-7.553 0.099c-4.274 0.099-15.205 0.795-24.548 1.49zM132.411 690.891c0 0.497-0.398 1.888-0.894 3.18s-2.584 7.652-4.671 14.212c-1.987 6.56-4.075 12.324-4.571 12.92s-1.591 0.497-2.982-0.398c-1.093-0.696-3.578-2.087-5.367-3.18-1.888-0.994-4.969-2.782-6.858-3.876s-5.068-2.883-6.957-3.975c-1.888-1.093-5.068-2.883-6.957-3.975s-5.168-2.982-7.155-4.174c-2.087-1.093-6.261-3.479-9.342-5.168-12.522-6.957-14.212-6.46 22.758-6.46 20.274-0.099 32.996 0.298 32.996 0.894z"></path>
</svg>
